<svg xmlns="http://www.w3.org/2000/svg" viewBox="0 0 800 500" width="800" height="500">
  <defs>
    <linearGradient id="sky" x1="0" y1="0" x2="0" y2="1">
      <stop offset="0" stop-color="#0f6b40"/>
      <stop offset="1" stop-color="#082b21"/>
    </linearGradient>
  </defs>
  <rect width="800" height="500" fill="url(#sky)"/>
  <!-- Edificio -->
  <g>
    <rect x="280" y="120" width="240" height="320" rx="6" fill="#0b3d2e" stroke="#ffd24a" stroke-width="3"/>
    <g fill="#ffe082" opacity="0.85">
      <rect x="305" y="150" width="40" height="40" rx="3"/>
      <rect x="365" y="150" width="40" height="40" rx="3"/>
      <rect x="425" y="150" width="40" height="40" rx="3"/>
      <rect x="305" y="210" width="40" height="40" rx="3"/>
      <rect x="365" y="210" width="40" height="40" rx="3"/>
      <rect x="425" y="210" width="40" height="40" rx="3"/>
      <rect x="305" y="270" width="40" height="40" rx="3"/>
      <rect x="365" y="270" width="40" height="40" rx="3"/>
      <rect x="425" y="270" width="40" height="40" rx="3"/>
      <rect x="305" y="330" width="40" height="40" rx="3"/>
      <rect x="425" y="330" width="40" height="40" rx="3"/>
    </g>
    <rect x="365" y="385" width="40" height="55" rx="3" fill="#f5b50f"/>
  </g>
  <text x="400" y="475" font-family="Arial, sans-serif" font-size="26" font-weight="800"
    fill="#ffe082" text-anchor="middle">EDIFICIO REAL DE LAS AMÉRICAS</text>
  <text x="400" y="100" font-family="Arial, sans-serif" font-size="18"
    fill="#c8f0d8" text-anchor="middle" opacity="0.7">📷 Reemplaza con la foto del edificio</text>
</svg>
